<svg xmlns="http://www.w3.org/2000/svg" viewBox="0 0 1200 900" preserveAspectRatio="xMidYMid slice"><defs><linearGradient id="s" x1="0" y1="0" x2="0" y2="1"><stop stop-color="#243039"/><stop offset=".5" stop-color="#8b8d82"/><stop offset="1" stop-color="#10110f"/></linearGradient><linearGradient id="r" x1="0" y1="0" x2="0" y2="1"><stop stop-color="#d8d8ce"/><stop offset=".35" stop-color="#565d5b"/><stop offset="1" stop-color="#080908"/></linearGradient><filter id="n"><feTurbulence baseFrequency=".9" numOctaves="2"/><feComponentTransfer><feFuncA type="table" tableValues="0 .12"/></feComponentTransfer></filter></defs><rect width="1200" height="900" fill="url(#s)"/><path d="M-50 610 85 420 175 455 285 210 402 505 525 250 612 500 742 150 852 520 955 300 1260 575 1260 900-50 900Z" fill="url(#r)"/><path d="M742 150 852 520 790 488 725 690 665 492 612 500Z" fill="#111615" opacity=".9"/><path d="M-50 740 C145 660 270 720 430 635 C610 538 765 630 920 552 C1050 488 1160 510 1260 475 L1260 900-50 900Z" fill="#090a09"/><path d="M430 690 C560 650 650 666 760 600 C860 545 940 558 1035 520" stroke="#c8a45d" stroke-width="5" stroke-opacity=".28" fill="none"/><rect width="1200" height="900" filter="url(#n)"/></svg>
