<svg xmlns="http://www.w3.org/2000/svg" viewBox="0 0 1200 900" preserveAspectRatio="xMidYMid slice"><defs><linearGradient id="c" x1="0" y1="0" x2="1" y2="1"><stop stop-color="#151a1c"/><stop offset=".42" stop-color="#5c5140"/><stop offset="1" stop-color="#080908"/></linearGradient><filter id="n"><feTurbulence baseFrequency=".75" numOctaves="3"/><feComponentTransfer><feFuncA type="table" tableValues="0 .16"/></feComponentTransfer></filter></defs><rect width="1200" height="900" fill="url(#c)"/><path d="M0 455 C160 370 330 430 490 330 C620 250 770 320 900 240 C1030 165 1110 205 1200 170 L1200 900H0Z" fill="#26302d" opacity=".64"/><path d="M0 620 C180 535 330 590 510 505 C710 410 880 505 1200 400 L1200 900H0Z" fill="#10120f"/><g opacity=".9" fill="#090a08"><path d="M210 706 l80-75 85 75Z"/><path d="M330 706 l64-58 70 58Z"/><path d="M742 695 l78-70 88 70Z"/></g><g stroke="#c8a45d" stroke-width="5" stroke-opacity=".45" fill="none"><path d="M250 705 v-112"/><path d="M802 696 v-100"/></g><g fill="#15120e"><circle cx="560" cy="623" r="20"/><path d="M540 647 h42 l16 92 h-72Z"/><circle cx="626" cy="638" r="17"/><path d="M609 660 h36 l12 78 h-58Z"/></g><path d="M0 760 C210 700 420 760 620 705 C840 645 1005 700 1200 650 L1200 900H0Z" fill="#060706"/><rect width="1200" height="900" filter="url(#n)"/></svg>
