<svg xmlns="http://www.w3.org/2000/svg" viewBox="0 0 1200 900" preserveAspectRatio="xMidYMid slice"><defs><linearGradient id="d" x1="0" y1="0" x2="0" y2="1"><stop stop-color="#2a3036"/><stop offset=".45" stop-color="#a58c5a"/><stop offset="1" stop-color="#0d0e0c"/></linearGradient><filter id="n"><feTurbulence baseFrequency=".65" numOctaves="3"/><feComponentTransfer><feFuncA type="table" tableValues="0 .13"/></feComponentTransfer></filter></defs><rect width="1200" height="900" fill="url(#d)"/><circle cx="760" cy="180" r="230" fill="#f2cf84" opacity=".18"/><path d="M-20 430 C170 380 290 405 430 365 C600 316 740 355 890 305 C1035 255 1120 295 1220 262 L1220 900-20 900Z" fill="#3e443c" opacity=".7"/><path d="M-40 590 C140 520 310 575 500 515 C700 450 880 535 1240 430 L1240 900-40 900Z" fill="#171914"/><path d="M-40 705 C180 650 350 705 550 650 C790 584 980 650 1240 585 L1240 900-40 900Z" fill="#090a08"/><path d="M190 662 h110 M355 630 h150 M820 610 h210" stroke="#c8a45d" stroke-opacity=".25" stroke-width="4"/><rect width="1200" height="900" filter="url(#n)"/></svg>
