<svg xmlns="http://www.w3.org/2000/svg" viewBox="0 0 1200 900" preserveAspectRatio="xMidYMid slice"><defs><linearGradient id="a" x1="0" y1="0" x2="1" y2="1"><stop stop-color="#161d22"/><stop offset=".55" stop-color="#786f5e"/><stop offset="1" stop-color="#090a09"/></linearGradient><linearGradient id="b" x1="0" y1="0" x2="0" y2="1"><stop stop-color="#e6e7df"/><stop offset=".5" stop-color="#59605c"/><stop offset="1" stop-color="#0b0c0b"/></linearGradient><filter id="g"><feTurbulence baseFrequency=".7" numOctaves="3"/><feComponentTransfer><feFuncA type="table" tableValues="0 .14"/></feComponentTransfer></filter></defs><rect width="1200" height="900" fill="url(#a)"/><circle cx="850" cy="180" r="260" fill="#c8a45d" opacity=".24"/><path d="M-30 650 130 425 220 500 365 260 490 508 645 210 770 520 930 270 1040 510 1230 330 1230 900-30 900Z" fill="url(#b)"/><path d="M365 260 490 508 415 490 360 635 300 505 220 500Z" fill="#202722" opacity=".82"/><path d="M645 210 770 520 690 495 635 700 575 500 490 508Z" fill="#161c1a" opacity=".86"/><path d="M-30 725 C170 625 315 700 500 590 C670 490 835 605 1000 500 C1080 450 1160 430 1230 440 L1230 900-30 900Z" fill="#080908" opacity=".9"/><rect width="1200" height="900" filter="url(#g)"/></svg>
